<svg width="23" height="25" viewBox="0 0 23 25" fill="none" xmlns="http://www.w3.org/2000/svg">
<g clip-path="url(#clip0)">
<path d="M22.5597 21.6162L18.2257 16.748C18.0301 16.5283 17.7649 16.4062 17.4867 16.4062H16.7781C17.9779 14.6826 18.6908 12.5146 18.6908 10.1562C18.6908 4.5459 14.6437 0 9.64894 0C4.65417 0 0.607056 4.5459 0.607056 10.1562C0.607056 15.7666 4.65417 20.3125 9.64894 20.3125C11.7486 20.3125 13.6787 19.5117 15.2132 18.1641V18.96C15.2132 19.2725 15.3219 19.5703 15.5175 19.79L19.8515 24.6582C20.2601 25.1172 20.9209 25.1172 21.3251 24.6582L22.5554 23.2764C22.964 22.8174 22.964 22.0752 22.5597 21.6162ZM9.64894 16.4062C6.57557 16.4062 4.0847 13.6133 4.0847 10.1562C4.0847 6.7041 6.57122 3.90625 9.64894 3.90625C12.7223 3.90625 15.2132 6.69922 15.2132 10.1562C15.2132 13.6084 12.7267 16.4062 9.64894 16.4062Z" fill="black"/>
</g>
<defs>
<clipPath id="clip0">
<rect x="0.607056" width="22.2569" height="25" fill="white"/>
</clipPath>
</defs>
</svg>
